name D:\school\WTK\thesis\model\3dpredictsim\Results\debug_batch\Pog_s1_tmt_aCst_d05_k1000_ig24_pas.mot
datacolumns 128
datarows 4
range 1.66241925 1.69566763
endheader
time	pelvis_tilt	pelvis_list	pelvis_rotation	pelvis_tx	pelvis_ty	pelvis_tz	hip_flexion_l	hip_adduction_l	hip_rotation_l	hip_flexion_r	hip_adduction_r	hip_rotation_r	knee_angle_l	knee_angle_r	ankle_angle_l	ankle_angle_r	subtalar_angle_l	subtalar_angle_r	tmt_angle_l	tmt_angle_r	mtp_angle_l	mtp_angle_r	lumbar_extension	lumbar_bending	lumbar_rotation	arm_flex_l	arm_add_l	arm_rot_l	arm_flex_r	arm_add_r	arm_rot_r	elbow_flex_l	elbow_flex_r	pro_sup_l	pro_sup_r	glut_med1_l/activation	glut_med2_l/activation	glut_med3_l/activation	glut_min1_l/activation	glut_min2_l/activation	glut_min3_l/activation	semimem_l/activation	semiten_l/activation	bifemlh_l/activation	bifemsh_l/activation	sar_l/activation	add_long_l/activation	add_brev_l/activation	add_mag1_l/activation	add_mag2_l/activation	add_mag3_l/activation	tfl_l/activation	pect_l/activation	grac_l/activation	glut_max1_l/activation	glut_max2_l/activation	glut_max3_l/activation	iliacus_l/activation	psoas_l/activation	quad_fem_l/activation	gem_l/activation	peri_l/activation	rect_fem_l/activation	vas_med_l/activation	vas_int_l/activation	vas_lat_l/activation	med_gas_l/activation	lat_gas_l/activation	soleus_l/activation	tib_post_l/activation	flex_dig_l/activation	flex_hal_l/activation	tib_ant_l/activation	per_brev_l/activation	per_long_l/activation	per_tert_l/activation	ext_dig_l/activation	ext_hal_l/activation	ercspn_l/activation	intobl_l/activation	extobl_l/activation	glut_med1_r/activation	glut_med2_r/activation	glut_med3_r/activation	glut_min1_r/activation	glut_min2_r/activation	glut_min3_r/activation	semimem_r/activation	semiten_r/activation	bifemlh_r/activation	bifemsh_r/activation	sar_r/activation	add_long_r/activation	add_brev_r/activation	add_mag1_r/activation	add_mag2_r/activation	add_mag3_r/activation	tfl_r/activation	pect_r/activation	grac_r/activation	glut_max1_r/activation	glut_max2_r/activation	glut_max3_r/activation	iliacus_r/activation	psoas_r/activation	quad_fem_r/activation	gem_r/activation	peri_r/activation	rect_fem_r/activation	vas_med_r/activation	vas_int_r/activation	vas_lat_r/activation	med_gas_r/activation	lat_gas_r/activation	soleus_r/activation	tib_post_r/activation	flex_dig_r/activation	flex_hal_r/activation	tib_ant_r/activation	per_brev_r/activation	per_long_r/activation	per_tert_r/activation	ext_dig_r/activation	ext_hal_r/activation	ercspn_r/activation	intobl_r/activation	extobl_r/activation	
          1.66241925	         -2.92331976	          2.54816892	         -6.29624928	          2.07802406	          0.85477468	          0.00298374	         31.88237492	          3.40418138	         -2.90206660	        -18.27763577	         -2.41121152	          7.40875260	        -15.54551558	         -9.18519208	          5.74769321	         -0.63340340	         -3.19447633	         11.95266110	          0.03274460	          1.57215541	         -0.10414974	         23.42983457	         -1.99037118	         -1.06582213	          2.12935501	         -9.92939162	        -13.57936397	          9.72884292	          8.64967870	        -13.47271761	         18.59097954	         12.37868532	         38.66773823	         86.51662706	         86.51662706	          0.05923563	          0.05923567	          0.05000007	          0.05923571	          0.05923570	          0.05923528	          0.05000051	          0.05000028	          0.28550951	          0.05000007	          0.05000016	          0.10256547	          0.24701453	          0.13270050	          0.15469805	          0.13720055	          0.05000008	          0.07013145	          0.05408791	          0.05000019	          0.05000018	          0.16135226	          0.05851668	          0.05097589	          0.30969274	          0.19657628	          0.14042734	          0.06359434	          0.20605617	          0.19830460	          0.17481396	          0.05000001	          0.05000002	          0.05000001	          0.05000000	          0.05000017	          0.05000014	          0.63717318	          0.36738889	          0.20439384	          0.42646112	          0.60221565	          0.32895089	          0.05924848	          0.08909535	          0.09343141	          0.23958342	          0.08502780	          0.05418291	          0.28890605	          0.18929080	          0.09383995	          0.05000154	          0.05000014	          0.05000011	          0.07408598	          0.09849765	          0.12437018	          0.12943307	          0.05004952	          0.05000373	          0.05000047	          0.28797329	          0.11667557	          0.05000718	          0.05000175	          0.05000092	          0.05000082	          0.35548853	          0.59186831	          0.05000051	          0.05000063	          0.05000012	          0.22705650	          0.12643951	          0.09452121	          0.06223666	          0.28527060	          0.38566150	          0.26913240	          0.24298123	          0.25994744	          0.33295165	          0.05000000	          0.06248565	          0.15560535	          0.05000005	          0.05000001	          0.05000006	          0.05000007	          0.05000214	          0.05000011	
          1.67350204	         -2.91244167	          2.64304841	         -6.55319998	          2.09517361	          0.85366028	          0.00276534	         31.18287758	          3.78268388	         -2.65854656	        -17.99290808	         -2.72375816	          7.20662424	        -15.75557151	        -11.40946655	          5.13190297	         -1.64885162	         -3.70904064	         12.99444120	          0.02581076	          1.29952517	         -0.07051875	         24.40746806	         -1.75788806	         -1.30320388	          2.21443370	        -11.12754776	        -13.57237354	          9.59501353	          8.34022258	        -13.49433311	         18.65479037	         12.36575687	         39.95337642	         86.51662706	         86.51662706	          0.05000001	          0.05000007	          0.14282340	          0.05000006	          0.05000007	          0.05000008	          0.05000005	          0.05000011	          0.24099463	          0.05000007	          0.05000165	          0.08657416	          0.20850162	          0.32104974	          0.23006210	          0.14619989	          0.05000050	          0.05919972	          0.07582150	          0.11006866	          0.11624255	          0.13619532	          0.05000012	          0.05000236	          0.39215086	          0.16592734	          0.11853280	          0.05923577	          0.20433021	          0.21981302	          0.18296546	          0.05000016	          0.05923536	          0.05000001	          0.05923566	          0.07017805	          0.07017724	          0.53863528	          0.38778630	          0.23147039	          0.35996998	          0.57007472	          0.27766292	          0.05001083	          0.07520415	          0.07886416	          0.20222908	          0.07177080	          0.05923558	          0.24386166	          0.15977776	          0.07920902	          0.05000168	          0.05000020	          0.05000035	          0.06253496	          0.08314061	          0.21160314	          0.21720073	          0.06065884	          0.05923618	          0.05923576	          0.24307438	          0.09848987	          0.05000235	          0.05001384	          0.05001718	          0.05923440	          0.30006297	          0.54174338	          0.05923562	          0.05923556	          0.05000103	          0.19165526	          0.13824486	          0.13824499	          0.13824488	          0.24079296	          0.32553152	          0.22717092	          0.20509711	          0.21941812	          0.28103993	          0.05000000	          0.05274330	          0.16485344	          0.05000004	          0.05000002	          0.05000006	          0.06684843	          0.05923566	          0.05000004	
          1.68458484	         -2.89782992	          2.73567751	         -6.77626091	          2.11252708	          0.85252457	          0.00255233	         30.31705311	          4.09746884	         -2.37483753	        -17.61133634	         -3.01662835	          6.99210715	        -16.21485163	        -13.78141743	          4.70270216	         -2.83479567	         -4.25905567	         13.94663208	         -0.01416615	          1.01170301	         -0.19451753	         25.13158829	         -1.51110795	         -1.54184461	          2.28859626	        -12.30618478	        -13.56943415	          9.51767101	          7.94706634	        -13.51828315	         18.64380935	         12.36795096	         41.20730964	         86.51662706	         86.51662706	          0.27447721	          0.29195825	          0.37124517	          0.36230001	          0.21799196	          0.19303427	          0.07667940	          0.08818291	          0.20342025	          0.07017601	          0.05000119	          0.07307608	          0.17599335	          0.27099372	          0.19419236	          0.15857881	          0.05000014	          0.05000237	          0.06400162	          0.22741101	          0.18159686	          0.13390742	          0.05000016	          0.05000008	          0.33100915	          0.14005706	          0.24330354	          0.05000011	          0.17247243	          0.19695951	          0.15443880	          0.05000042	          0.05000018	          0.05130934	          0.05000001	          0.05923637	          0.05923569	          0.59362921	          0.39297583	          0.19538112	          0.63192389	          0.64672394	          0.31128227	          0.06935266	          0.08314038	          0.06656814	          0.27580192	          0.06058075	          0.05000001	          0.31625005	          0.13486624	          0.06685926	          0.06547046	          0.05000007	          0.05000005	          0.05278493	          0.07017809	          0.17861143	          0.18333628	          0.05120137	          0.05000070	          0.05000024	          0.26171428	          0.08313985	          0.05000028	          0.05000039	          0.05000023	          0.05000015	          0.25327903	          0.49978005	          0.05000003	          0.05000016	          0.05000005	          0.16177355	          0.11669060	          0.11669070	          0.11669061	          0.20324999	          0.27477664	          0.19175182	          0.17311964	          0.18520785	          0.23722195	          0.08257212	          0.14768513	          0.17663963	          0.05000025	          0.15043164	          0.05000058	          0.08103358	          0.05000001	          0.05000003	
          1.69566763	         -2.88153480	          2.81816661	         -6.95969139	          2.12983135	          0.85140902	          0.00230495	         29.39227880	          4.39951961	         -2.09664551	        -17.10455647	         -3.28100326	          6.77449194	        -16.63913014	        -16.32611011	          4.41081863	         -4.07336951	         -4.83383626	         14.80961480	         -0.01856603	          0.70101189	         -0.20165617	         25.32588008	         -1.27437499	         -1.77200061	          2.35182738	        -13.40522812	        -13.56567533	          9.51341548	          7.51762742	        -13.54889514	         18.58576332	         12.34651804	         42.39413816	         86.51662706	         86.51662706	          0.40377196	          0.46302992	          0.54076429	          0.30581455	          0.28297018	          0.43231412	          0.07690072	          0.11933420	          0.17170422	          0.05923651	          0.05000017	          0.06168255	          0.14855362	          0.22874325	          0.24296753	          0.18921415	          0.05000011	          0.05003187	          0.12045782	          0.31372255	          0.23673881	          0.19009531	          0.05000005	          0.05000005	          0.27940027	          0.11822028	          0.27004772	          0.05000001	          0.23662350	          0.27281509	          0.21365913	          0.05000000	          0.05000001	          0.05000000	          0.05000001	          0.05000066	          0.05000012	          0.73083544	          0.33170545	          0.16491850	          0.58482084	          0.64718170	          0.45601121	          0.09494535	          0.07017764	          0.05618925	          0.23280060	          0.05113539	          0.05000004	          0.26694233	          0.11383875	          0.05643501	          0.08984592	          0.05000020	          0.05000028	          0.05000004	          0.05923644	          0.19440097	          0.15475205	          0.17142392	          0.05000419	          0.11859103	          0.22090974	          0.07017737	          0.05000028	          0.05000144	          0.05000091	          0.05000058	          0.21378933	          0.43365704	          0.05000007	          0.05000032	          0.05000008	          0.13655081	          0.09849702	          0.09849708	          0.09849698	          0.17156050	          0.23193515	          0.16185505	          0.14612791	          0.15633145	          0.20023582	          0.18837155	          0.12826171	          0.14909913	          0.24462750	          0.24796605	          0.12184010	          0.11113635	          0.05000001	          0.05000001	
